<svg class="rich-terminal" viewBox="0 0 1434 879.5999999999999" xmlns="http://www.w3.org/2000/svg">
    <!-- Generated with Rich https://www.textualize.io -->
    <style>

    @font-face {
        font-family: "Fira Code";
        src: local("FiraCode-Regular"),
                url("https://cdnjs.cloudflare.com/ajax/libs/firacode/6.2.0/woff2/FiraCode-Regular.woff2") format("woff2"),
                url("https://cdnjs.cloudflare.com/ajax/libs/firacode/6.2.0/woff/FiraCode-Regular.woff") format("woff");
        font-style: normal;
        font-weight: 400;
    }
    @font-face {
        font-family: "Fira Code";
        src: local("FiraCode-Bold"),
                url("https://cdnjs.cloudflare.com/ajax/libs/firacode/6.2.0/woff2/FiraCode-Bold.woff2") format("woff2"),
                url("https://cdnjs.cloudflare.com/ajax/libs/firacode/6.2.0/woff/FiraCode-Bold.woff") format("woff");
        font-style: bold;
        font-weight: 700;
    }

    .terminal-321853827-matrix {
        font-family: Fira Code, monospace;
        font-size: 20px;
        line-height: 24.4px;
        font-variant-east-asian: full-width;
    }

    .terminal-321853827-title {
        font-size: 18px;
        font-weight: bold;
        font-family: arial;
    }

    .terminal-321853827-r1 { fill: #c5c8c6 }
.terminal-321853827-r2 { fill: #f4f4f5 }
.terminal-321853827-r3 { fill: #d4d4d6 }
.terminal-321853827-r4 { fill: #00ff00 }
.terminal-321853827-r5 { fill: #27272e }
.terminal-321853827-r6 { fill: #202020;font-weight: bold }
.terminal-321853827-r7 { fill: #fafafa;font-weight: bold }
.terminal-321853827-r8 { fill: #858591 }
.terminal-321853827-r9 { fill: #19191c }
.terminal-321853827-r10 { fill: #38bdf8;font-weight: bold }
    </style>

    <defs>
    <clipPath id="terminal-321853827-clip-terminal">
      <rect x="0" y="0" width="1414.1999999999998" height="828.5999999999999" />
    </clipPath>
    <clipPath id="terminal-321853827-line-0">
    <rect x="0" y="1.5" width="1415.2" height="24.65"/>
            </clipPath>
<clipPath id="terminal-321853827-line-1">
    <rect x="0" y="25.9" width="1415.2" height="24.65"/>
            </clipPath>
<clipPath id="terminal-321853827-line-2">
    <rect x="0" y="50.3" width="1415.2" height="24.65"/>
            </clipPath>
<clipPath id="terminal-321853827-line-3">
    <rect x="0" y="74.7" width="1415.2" height="24.65"/>
            </clipPath>
<clipPath id="terminal-321853827-line-4">
    <rect x="0" y="99.1" width="1415.2" height="24.65"/>
            </clipPath>
<clipPath id="terminal-321853827-line-5">
    <rect x="0" y="123.5" width="1415.2" height="24.65"/>
            </clipPath>
<clipPath id="terminal-321853827-line-6">
    <rect x="0" y="147.9" width="1415.2" height="24.65"/>
            </clipPath>
<clipPath id="terminal-321853827-line-7">
    <rect x="0" y="172.3" width="1415.2" height="24.65"/>
            </clipPath>
<clipPath id="terminal-321853827-line-8">
    <rect x="0" y="196.7" width="1415.2" height="24.65"/>
            </clipPath>
<clipPath id="terminal-321853827-line-9">
    <rect x="0" y="221.1" width="1415.2" height="24.65"/>
            </clipPath>
<clipPath id="terminal-321853827-line-10">
    <rect x="0" y="245.5" width="1415.2" height="24.65"/>
            </clipPath>
<clipPath id="terminal-321853827-line-11">
    <rect x="0" y="269.9" width="1415.2" height="24.65"/>
            </clipPath>
<clipPath id="terminal-321853827-line-12">
    <rect x="0" y="294.3" width="1415.2" height="24.65"/>
            </clipPath>
<clipPath id="terminal-321853827-line-13">
    <rect x="0" y="318.7" width="1415.2" height="24.65"/>
            </clipPath>
<clipPath id="terminal-321853827-line-14">
    <rect x="0" y="343.1" width="1415.2" height="24.65"/>
            </clipPath>
<clipPath id="terminal-321853827-line-15">
    <rect x="0" y="367.5" width="1415.2" height="24.65"/>
            </clipPath>
<clipPath id="terminal-321853827-line-16">
    <rect x="0" y="391.9" width="1415.2" height="24.65"/>
            </clipPath>
<clipPath id="terminal-321853827-line-17">
    <rect x="0" y="416.3" width="1415.2" height="24.65"/>
            </clipPath>
<clipPath id="terminal-321853827-line-18">
    <rect x="0" y="440.7" width="1415.2" height="24.65"/>
            </clipPath>
<clipPath id="terminal-321853827-line-19">
    <rect x="0" y="465.1" width="1415.2" height="24.65"/>
            </clipPath>
<clipPath id="terminal-321853827-line-20">
    <rect x="0" y="489.5" width="1415.2" height="24.65"/>
            </clipPath>
<clipPath id="terminal-321853827-line-21">
    <rect x="0" y="513.9" width="1415.2" height="24.65"/>
            </clipPath>
<clipPath id="terminal-321853827-line-22">
    <rect x="0" y="538.3" width="1415.2" height="24.65"/>
            </clipPath>
<clipPath id="terminal-321853827-line-23">
    <rect x="0" y="562.7" width="1415.2" height="24.65"/>
            </clipPath>
<clipPath id="terminal-321853827-line-24">
    <rect x="0" y="587.1" width="1415.2" height="24.65"/>
            </clipPath>
<clipPath id="terminal-321853827-line-25">
    <rect x="0" y="611.5" width="1415.2" height="24.65"/>
            </clipPath>
<clipPath id="terminal-321853827-line-26">
    <rect x="0" y="635.9" width="1415.2" height="24.65"/>
            </clipPath>
<clipPath id="terminal-321853827-line-27">
    <rect x="0" y="660.3" width="1415.2" height="24.65"/>
            </clipPath>
<clipPath id="terminal-321853827-line-28">
    <rect x="0" y="684.7" width="1415.2" height="24.65"/>
            </clipPath>
<clipPath id="terminal-321853827-line-29">
    <rect x="0" y="709.1" width="1415.2" height="24.65"/>
            </clipPath>
<clipPath id="terminal-321853827-line-30">
    <rect x="0" y="733.5" width="1415.2" height="24.65"/>
            </clipPath>
<clipPath id="terminal-321853827-line-31">
    <rect x="0" y="757.9" width="1415.2" height="24.65"/>
            </clipPath>
<clipPath id="terminal-321853827-line-32">
    <rect x="0" y="782.3" width="1415.2" height="24.65"/>
            </clipPath>
    </defs>

    <rect fill="#292929" stroke="rgba(255,255,255,0.35)" stroke-width="1" x="1" y="1" width="1432" height="877.6" rx="8"/><text class="terminal-321853827-title" fill="#c5c8c6" text-anchor="middle" x="716" y="27">ScreenshotApp</text>
            <g transform="translate(26,22)">
            <circle cx="0" cy="0" r="7" fill="#ff5f57"/>
            <circle cx="22" cy="0" r="7" fill="#febc2e"/>
            <circle cx="44" cy="0" r="7" fill="#28c840"/>
            </g>
        
    <g transform="translate(9, 41)" clip-path="url(#terminal-321853827-clip-terminal)">
    <rect fill="#1c1c21" x="0" y="1.5" width="12.2" height="24.65" shape-rendering="crispEdges"/><rect fill="#1c1c21" x="12.2" y="1.5" width="12.2" height="24.65" shape-rendering="crispEdges"/><rect fill="#1c1c21" x="24.4" y="1.5" width="61" height="24.65" shape-rendering="crispEdges"/><rect fill="#1c1c21" x="85.4" y="1.5" width="12.2" height="24.65" shape-rendering="crispEdges"/><rect fill="#1c1c21" x="97.6" y="1.5" width="512.4" height="24.65" shape-rendering="crispEdges"/><rect fill="#1c1c21" x="610" y="1.5" width="158.6" height="24.65" shape-rendering="crispEdges"/><rect fill="#1c1c21" x="768.6" y="1.5" width="524.6" height="24.65" shape-rendering="crispEdges"/><rect fill="#25252a" x="1293.2" y="1.5" width="12.2" height="24.65" shape-rendering="crispEdges"/><rect fill="#25252a" x="1305.4" y="1.5" width="97.6" height="24.65" shape-rendering="crispEdges"/><rect fill="#25252a" x="1403" y="1.5" width="12.2" height="24.65" shape-rendering="crispEdges"/><rect fill="#1c1c21" x="0" y="25.9" width="329.4" height="24.65" shape-rendering="crispEdges"/><rect fill="#121215" x="329.4" y="25.9" width="12.2" height="24.65" shape-rendering="crispEdges"/><rect fill="#09090b" x="341.6" y="25.9" width="1073.6" height="24.65" shape-rendering="crispEdges"/><rect fill="#fafafa" x="0" y="50.3" width="12.2" height="24.65" shape-rendering="crispEdges"/><rect fill="#fafafa" x="12.2" y="50.3" width="183" height="24.65" shape-rendering="crispEdges"/><rect fill="#fafafa" x="195.2" y="50.3" width="122" height="24.65" shape-rendering="crispEdges"/><rect fill="#fafafa" x="317.2" y="50.3" width="12.2" height="24.65" shape-rendering="crispEdges"/><rect fill="#121215" x="329.4" y="50.3" width="12.2" height="24.65" shape-rendering="crispEdges"/><rect fill="#09090b" x="341.6" y="50.3" width="24.4" height="24.65" shape-rendering="crispEdges"/><rect fill="#09090b" x="366" y="50.3" width="366" height="24.65" shape-rendering="crispEdges"/><rect fill="#09090b" x="732" y="50.3" width="658.8" height="24.65" shape-rendering="crispEdges"/><rect fill="#09090b" x="1390.8" y="50.3" width="24.4" height="24.65" shape-rendering="crispEdges"/><rect fill="#121215" x="0" y="74.7" width="12.2" height="24.65" shape-rendering="crispEdges"/><rect fill="#121215" x="12.2" y="74.7" width="207.4" height="24.65" shape-rendering="crispEdges"/><rect fill="#121215" x="219.6" y="74.7" width="97.6" height="24.65" shape-rendering="crispEdges"/><rect fill="#121215" x="317.2" y="74.7" width="12.2" height="24.65" shape-rendering="crispEdges"/><rect fill="#121215" x="329.4" y="74.7" width="12.2" height="24.65" shape-rendering="crispEdges"/><rect fill="#09090b" x="341.6" y="74.7" width="24.4" height="24.65" shape-rendering="crispEdges"/><rect fill="#09090b" x="366" y="74.7" width="841.8" height="24.65" shape-rendering="crispEdges"/><rect fill="#09090b" x="1207.8" y="74.7" width="183" height="24.65" shape-rendering="crispEdges"/><rect fill="#09090b" x="1390.8" y="74.7" width="24.4" height="24.65" shape-rendering="crispEdges"/><rect fill="#121215" x="0" y="99.1" width="12.2" height="24.65" shape-rendering="crispEdges"/><rect fill="#121215" x="12.2" y="99.1" width="170.8" height="24.65" shape-rendering="crispEdges"/><rect fill="#121215" x="183" y="99.1" width="134.2" height="24.65" shape-rendering="crispEdges"/><rect fill="#121215" x="317.2" y="99.1" width="12.2" height="24.65" shape-rendering="crispEdges"/><rect fill="#121215" x="329.4" y="99.1" width="12.2" height="24.65" shape-rendering="crispEdges"/><rect fill="#09090b" x="341.6" y="99.1" width="24.4" height="24.65" shape-rendering="crispEdges"/><rect fill="#09090b" x="366" y="99.1" width="1024.8" height="24.65" shape-rendering="crispEdges"/><rect fill="#09090b" x="1390.8" y="99.1" width="24.4" height="24.65" shape-rendering="crispEdges"/><rect fill="#121215" x="0" y="123.5" width="12.2" height="24.65" shape-rendering="crispEdges"/><rect fill="#121215" x="12.2" y="123.5" width="109.8" height="24.65" shape-rendering="crispEdges"/><rect fill="#121215" x="122" y="123.5" width="195.2" height="24.65" shape-rendering="crispEdges"/><rect fill="#121215" x="317.2" y="123.5" width="12.2" height="24.65" shape-rendering="crispEdges"/><rect fill="#121215" x="329.4" y="123.5" width="12.2" height="24.65" shape-rendering="crispEdges"/><rect fill="#09090b" x="341.6" y="123.5" width="24.4" height="24.65" shape-rendering="crispEdges"/><rect fill="#121215" x="366" y="123.5" width="12.2" height="24.65" shape-rendering="crispEdges"/><rect fill="#121215" x="378.2" y="123.5" width="231.8" height="24.65" shape-rendering="crispEdges"/><rect fill="#121215" x="610" y="123.5" width="109.8" height="24.65" shape-rendering="crispEdges"/><rect fill="#09090b" x="719.8" y="123.5" width="12.2" height="24.65" shape-rendering="crispEdges"/><rect fill="#09090b" x="732" y="123.5" width="329.4" height="24.65" shape-rendering="crispEdges"/><rect fill="#09090b" x="1061.4" y="123.5" width="305" height="24.65" shape-rendering="crispEdges"/><rect fill="#09090b" x="1366.4" y="123.5" width="12.2" height="24.65" shape-rendering="crispEdges"/><rect fill="#121215" x="1378.6" y="123.5" width="12.2" height="24.65" shape-rendering="crispEdges"/><rect fill="#09090b" x="1390.8" y="123.5" width="24.4" height="24.65" shape-rendering="crispEdges"/><rect fill="#121215" x="0" y="147.9" width="12.2" height="24.65" shape-rendering="crispEdges"/><rect fill="#121215" x="12.2" y="147.9" width="195.2" height="24.65" shape-rendering="crispEdges"/><rect fill="#121215" x="207.4" y="147.9" width="109.8" height="24.65" shape-rendering="crispEdges"/><rect fill="#121215" x="317.2" y="147.9" width="12.2" height="24.65" shape-rendering="crispEdges"/><rect fill="#121215" x="329.4" y="147.9" width="12.2" height="24.65" shape-rendering="crispEdges"/><rect fill="#09090b" x="341.6" y="147.9" width="24.4" height="24.65" shape-rendering="crispEdges"/><rect fill="#09090b" x="366" y="147.9" width="1024.8" height="24.65" shape-rendering="crispEdges"/><rect fill="#09090b" x="1390.8" y="147.9" width="24.4" height="24.65" shape-rendering="crispEdges"/><rect fill="#121215" x="0" y="172.3" width="12.2" height="24.65" shape-rendering="crispEdges"/><rect fill="#121215" x="12.2" y="172.3" width="97.6" height="24.65" shape-rendering="crispEdges"/><rect fill="#121215" x="109.8" y="172.3" width="207.4" height="24.65" shape-rendering="crispEdges"/><rect fill="#121215" x="317.2" y="172.3" width="12.2" height="24.65" shape-rendering="crispEdges"/><rect fill="#121215" x="329.4" y="172.3" width="12.2" height="24.65" shape-rendering="crispEdges"/><rect fill="#09090b" x="341.6" y="172.3" width="24.4" height="24.65" shape-rendering="crispEdges"/><rect fill="#121215" x="366" y="172.3" width="12.2" height="24.65" shape-rendering="crispEdges"/><rect fill="#121215" x="378.2" y="172.3" width="219.6" height="24.65" shape-rendering="crispEdges"/><rect fill="#121215" x="597.8" y="172.3" width="122" height="24.65" shape-rendering="crispEdges"/><rect fill="#09090b" x="719.8" y="172.3" width="12.2" height="24.65" shape-rendering="crispEdges"/><rect fill="#09090b" x="732" y="172.3" width="317.2" height="24.65" shape-rendering="crispEdges"/><rect fill="#09090b" x="1049.2" y="172.3" width="317.2" height="24.65" shape-rendering="crispEdges"/><rect fill="#09090b" x="1366.4" y="172.3" width="12.2" height="24.65" shape-rendering="crispEdges"/><rect fill="#121215" x="1378.6" y="172.3" width="12.2" height="24.65" shape-rendering="crispEdges"/><rect fill="#09090b" x="1390.8" y="172.3" width="24.4" height="24.65" shape-rendering="crispEdges"/><rect fill="#121215" x="0" y="196.7" width="12.2" height="24.65" shape-rendering="crispEdges"/><rect fill="#121215" x="12.2" y="196.7" width="134.2" height="24.65" shape-rendering="crispEdges"/><rect fill="#121215" x="146.4" y="196.7" width="170.8" height="24.65" shape-rendering="crispEdges"/><rect fill="#121215" x="317.2" y="196.7" width="12.2" height="24.65" shape-rendering="crispEdges"/><rect fill="#121215" x="329.4" y="196.7" width="12.2" height="24.65" shape-rendering="crispEdges"/><rect fill="#09090b" x="341.6" y="196.7" width="24.4" height="24.65" shape-rendering="crispEdges"/><rect fill="#09090b" x="366" y="196.7" width="1024.8" height="24.65" shape-rendering="crispEdges"/><rect fill="#09090b" x="1390.8" y="196.7" width="24.4" height="24.65" shape-rendering="crispEdges"/><rect fill="#121215" x="0" y="221.1" width="12.2" height="24.65" shape-rendering="crispEdges"/><rect fill="#121215" x="12.2" y="221.1" width="122" height="24.65" shape-rendering="crispEdges"/><rect fill="#121215" x="134.2" y="221.1" width="183" height="24.65" shape-rendering="crispEdges"/><rect fill="#121215" x="317.2" y="221.1" width="12.2" height="24.65" shape-rendering="crispEdges"/><rect fill="#121215" x="329.4" y="221.1" width="12.2" height="24.65" shape-rendering="crispEdges"/><rect fill="#09090b" x="341.6" y="221.1" width="24.4" height="24.65" shape-rendering="crispEdges"/><rect fill="#121215" x="366" y="221.1" width="12.2" height="24.65" shape-rendering="crispEdges"/><rect fill="#121215" x="378.2" y="221.1" width="231.8" height="24.65" shape-rendering="crispEdges"/><rect fill="#121215" x="610" y="221.1" width="109.8" height="24.65" shape-rendering="crispEdges"/><rect fill="#09090b" x="719.8" y="221.1" width="12.2" height="24.65" shape-rendering="crispEdges"/><rect fill="#09090b" x="732" y="221.1" width="634.4" height="24.65" shape-rendering="crispEdges"/><rect fill="#09090b" x="1366.4" y="221.1" width="12.2" height="24.65" shape-rendering="crispEdges"/><rect fill="#121215" x="1378.6" y="221.1" width="12.2" height="24.65" shape-rendering="crispEdges"/><rect fill="#09090b" x="1390.8" y="221.1" width="24.4" height="24.65" shape-rendering="crispEdges"/><rect fill="#121215" x="0" y="245.5" width="329.4" height="24.65" shape-rendering="crispEdges"/><rect fill="#121215" x="329.4" y="245.5" width="12.2" height="24.65" shape-rendering="crispEdges"/><rect fill="#09090b" x="341.6" y="245.5" width="24.4" height="24.65" shape-rendering="crispEdges"/><rect fill="#09090b" x="366" y="245.5" width="1024.8" height="24.65" shape-rendering="crispEdges"/><rect fill="#09090b" x="1390.8" y="245.5" width="24.4" height="24.65" shape-rendering="crispEdges"/><rect fill="#121215" x="0" y="269.9" width="329.4" height="24.65" shape-rendering="crispEdges"/><rect fill="#121215" x="329.4" y="269.9" width="12.2" height="24.65" shape-rendering="crispEdges"/><rect fill="#09090b" x="341.6" y="269.9" width="24.4" height="24.65" shape-rendering="crispEdges"/><rect fill="#121215" x="366" y="269.9" width="12.2" height="24.65" shape-rendering="crispEdges"/><rect fill="#121215" x="378.2" y="269.9" width="170.8" height="24.65" shape-rendering="crispEdges"/><rect fill="#121215" x="549" y="269.9" width="170.8" height="24.65" shape-rendering="crispEdges"/><rect fill="#121215" x="719.8" y="269.9" width="610" height="24.65" shape-rendering="crispEdges"/><rect fill="#121215" x="1329.8" y="269.9" width="48.8" height="24.65" shape-rendering="crispEdges"/><rect fill="#121215" x="1378.6" y="269.9" width="12.2" height="24.65" shape-rendering="crispEdges"/><rect fill="#09090b" x="1390.8" y="269.9" width="24.4" height="24.65" shape-rendering="crispEdges"/><rect fill="#121215" x="0" y="294.3" width="329.4" height="24.65" shape-rendering="crispEdges"/><rect fill="#121215" x="329.4" y="294.3" width="12.2" height="24.65" shape-rendering="crispEdges"/><rect fill="#09090b" x="341.6" y="294.3" width="24.4" height="24.65" shape-rendering="crispEdges"/><rect fill="#09090b" x="366" y="294.3" width="1024.8" height="24.65" shape-rendering="crispEdges"/><rect fill="#09090b" x="1390.8" y="294.3" width="24.4" height="24.65" shape-rendering="crispEdges"/><rect fill="#121215" x="0" y="318.7" width="329.4" height="24.65" shape-rendering="crispEdges"/><rect fill="#121215" x="329.4" y="318.7" width="12.2" height="24.65" shape-rendering="crispEdges"/><rect fill="#09090b" x="341.6" y="318.7" width="24.4" height="24.65" shape-rendering="crispEdges"/><rect fill="#121215" x="366" y="318.7" width="12.2" height="24.65" shape-rendering="crispEdges"/><rect fill="#121215" x="378.2" y="318.7" width="158.6" height="24.65" shape-rendering="crispEdges"/><rect fill="#121215" x="536.8" y="318.7" width="183" height="24.65" shape-rendering="crispEdges"/><rect fill="#121215" x="719.8" y="318.7" width="207.4" height="24.65" shape-rendering="crispEdges"/><rect fill="#121215" x="927.2" y="318.7" width="451.4" height="24.65" shape-rendering="crispEdges"/><rect fill="#121215" x="1378.6" y="318.7" width="12.2" height="24.65" shape-rendering="crispEdges"/><rect fill="#09090b" x="1390.8" y="318.7" width="24.4" height="24.65" shape-rendering="crispEdges"/><rect fill="#121215" x="0" y="343.1" width="329.4" height="24.65" shape-rendering="crispEdges"/><rect fill="#121215" x="329.4" y="343.1" width="12.2" height="24.65" shape-rendering="crispEdges"/><rect fill="#09090b" x="341.6" y="343.1" width="24.4" height="24.65" shape-rendering="crispEdges"/><rect fill="#09090b" x="366" y="343.1" width="1024.8" height="24.65" shape-rendering="crispEdges"/><rect fill="#09090b" x="1390.8" y="343.1" width="24.4" height="24.65" shape-rendering="crispEdges"/><rect fill="#121215" x="0" y="367.5" width="329.4" height="24.65" shape-rendering="crispEdges"/><rect fill="#121215" x="329.4" y="367.5" width="12.2" height="24.65" shape-rendering="crispEdges"/><rect fill="#09090b" x="341.6" y="367.5" width="24.4" height="24.65" shape-rendering="crispEdges"/><rect fill="#09090b" x="366" y="367.5" width="1024.8" height="24.65" shape-rendering="crispEdges"/><rect fill="#09090b" x="1390.8" y="367.5" width="24.4" height="24.65" shape-rendering="crispEdges"/><rect fill="#121215" x="0" y="391.9" width="329.4" height="24.65" shape-rendering="crispEdges"/><rect fill="#121215" x="329.4" y="391.9" width="12.2" height="24.65" shape-rendering="crispEdges"/><rect fill="#09090b" x="341.6" y="391.9" width="24.4" height="24.65" shape-rendering="crispEdges"/><rect fill="#09090b" x="366" y="391.9" width="1024.8" height="24.65" shape-rendering="crispEdges"/><rect fill="#09090b" x="1390.8" y="391.9" width="24.4" height="24.65" shape-rendering="crispEdges"/><rect fill="#121215" x="0" y="416.3" width="329.4" height="24.65" shape-rendering="crispEdges"/><rect fill="#121215" x="329.4" y="416.3" width="12.2" height="24.65" shape-rendering="crispEdges"/><rect fill="#09090b" x="341.6" y="416.3" width="24.4" height="24.65" shape-rendering="crispEdges"/><rect fill="#09090b" x="366" y="416.3" width="1024.8" height="24.65" shape-rendering="crispEdges"/><rect fill="#09090b" x="1390.8" y="416.3" width="24.4" height="24.65" shape-rendering="crispEdges"/><rect fill="#121215" x="0" y="440.7" width="329.4" height="24.65" shape-rendering="crispEdges"/><rect fill="#121215" x="329.4" y="440.7" width="12.2" height="24.65" shape-rendering="crispEdges"/><rect fill="#09090b" x="341.6" y="440.7" width="24.4" height="24.65" shape-rendering="crispEdges"/><rect fill="#09090b" x="366" y="440.7" width="1024.8" height="24.65" shape-rendering="crispEdges"/><rect fill="#09090b" x="1390.8" y="440.7" width="24.4" height="24.65" shape-rendering="crispEdges"/><rect fill="#121215" x="0" y="465.1" width="329.4" height="24.65" shape-rendering="crispEdges"/><rect fill="#121215" x="329.4" y="465.1" width="12.2" height="24.65" shape-rendering="crispEdges"/><rect fill="#09090b" x="341.6" y="465.1" width="24.4" height="24.65" shape-rendering="crispEdges"/><rect fill="#09090b" x="366" y="465.1" width="1024.8" height="24.65" shape-rendering="crispEdges"/><rect fill="#09090b" x="1390.8" y="465.1" width="24.4" height="24.65" shape-rendering="crispEdges"/><rect fill="#121215" x="0" y="489.5" width="329.4" height="24.65" shape-rendering="crispEdges"/><rect fill="#121215" x="329.4" y="489.5" width="12.2" height="24.65" shape-rendering="crispEdges"/><rect fill="#09090b" x="341.6" y="489.5" width="24.4" height="24.65" shape-rendering="crispEdges"/><rect fill="#09090b" x="366" y="489.5" width="1024.8" height="24.65" shape-rendering="crispEdges"/><rect fill="#09090b" x="1390.8" y="489.5" width="24.4" height="24.65" shape-rendering="crispEdges"/><rect fill="#121215" x="0" y="513.9" width="329.4" height="24.65" shape-rendering="crispEdges"/><rect fill="#121215" x="329.4" y="513.9" width="12.2" height="24.65" shape-rendering="crispEdges"/><rect fill="#09090b" x="341.6" y="513.9" width="24.4" height="24.65" shape-rendering="crispEdges"/><rect fill="#09090b" x="366" y="513.9" width="1024.8" height="24.65" shape-rendering="crispEdges"/><rect fill="#09090b" x="1390.8" y="513.9" width="24.4" height="24.65" shape-rendering="crispEdges"/><rect fill="#121215" x="0" y="538.3" width="329.4" height="24.65" shape-rendering="crispEdges"/><rect fill="#121215" x="329.4" y="538.3" width="12.2" height="24.65" shape-rendering="crispEdges"/><rect fill="#09090b" x="341.6" y="538.3" width="24.4" height="24.65" shape-rendering="crispEdges"/><rect fill="#09090b" x="366" y="538.3" width="1024.8" height="24.65" shape-rendering="crispEdges"/><rect fill="#09090b" x="1390.8" y="538.3" width="24.4" height="24.65" shape-rendering="crispEdges"/><rect fill="#121215" x="0" y="562.7" width="329.4" height="24.65" shape-rendering="crispEdges"/><rect fill="#121215" x="329.4" y="562.7" width="12.2" height="24.65" shape-rendering="crispEdges"/><rect fill="#09090b" x="341.6" y="562.7" width="24.4" height="24.65" shape-rendering="crispEdges"/><rect fill="#09090b" x="366" y="562.7" width="1024.8" height="24.65" shape-rendering="crispEdges"/><rect fill="#09090b" x="1390.8" y="562.7" width="24.4" height="24.65" shape-rendering="crispEdges"/><rect fill="#121215" x="0" y="587.1" width="329.4" height="24.65" shape-rendering="crispEdges"/><rect fill="#121215" x="329.4" y="587.1" width="12.2" height="24.65" shape-rendering="crispEdges"/><rect fill="#09090b" x="341.6" y="587.1" width="24.4" height="24.65" shape-rendering="crispEdges"/><rect fill="#09090b" x="366" y="587.1" width="1024.8" height="24.65" shape-rendering="crispEdges"/><rect fill="#09090b" x="1390.8" y="587.1" width="24.4" height="24.65" shape-rendering="crispEdges"/><rect fill="#121215" x="0" y="611.5" width="329.4" height="24.65" shape-rendering="crispEdges"/><rect fill="#121215" x="329.4" y="611.5" width="12.2" height="24.65" shape-rendering="crispEdges"/><rect fill="#09090b" x="341.6" y="611.5" width="24.4" height="24.65" shape-rendering="crispEdges"/><rect fill="#09090b" x="366" y="611.5" width="1024.8" height="24.65" shape-rendering="crispEdges"/><rect fill="#09090b" x="1390.8" y="611.5" width="24.4" height="24.65" shape-rendering="crispEdges"/><rect fill="#121215" x="0" y="635.9" width="329.4" height="24.65" shape-rendering="crispEdges"/><rect fill="#121215" x="329.4" y="635.9" width="12.2" height="24.65" shape-rendering="crispEdges"/><rect fill="#09090b" x="341.6" y="635.9" width="24.4" height="24.65" shape-rendering="crispEdges"/><rect fill="#09090b" x="366" y="635.9" width="1024.8" height="24.65" shape-rendering="crispEdges"/><rect fill="#09090b" x="1390.8" y="635.9" width="24.4" height="24.65" shape-rendering="crispEdges"/><rect fill="#121215" x="0" y="660.3" width="329.4" height="24.65" shape-rendering="crispEdges"/><rect fill="#121215" x="329.4" y="660.3" width="12.2" height="24.65" shape-rendering="crispEdges"/><rect fill="#09090b" x="341.6" y="660.3" width="24.4" height="24.65" shape-rendering="crispEdges"/><rect fill="#09090b" x="366" y="660.3" width="1024.8" height="24.65" shape-rendering="crispEdges"/><rect fill="#09090b" x="1390.8" y="660.3" width="24.4" height="24.65" shape-rendering="crispEdges"/><rect fill="#121215" x="0" y="684.7" width="329.4" height="24.65" shape-rendering="crispEdges"/><rect fill="#121215" x="329.4" y="684.7" width="12.2" height="24.65" shape-rendering="crispEdges"/><rect fill="#09090b" x="341.6" y="684.7" width="24.4" height="24.65" shape-rendering="crispEdges"/><rect fill="#09090b" x="366" y="684.7" width="1024.8" height="24.65" shape-rendering="crispEdges"/><rect fill="#09090b" x="1390.8" y="684.7" width="24.4" height="24.65" shape-rendering="crispEdges"/><rect fill="#121215" x="0" y="709.1" width="329.4" height="24.65" shape-rendering="crispEdges"/><rect fill="#121215" x="329.4" y="709.1" width="12.2" height="24.65" shape-rendering="crispEdges"/><rect fill="#09090b" x="341.6" y="709.1" width="24.4" height="24.65" shape-rendering="crispEdges"/><rect fill="#09090b" x="366" y="709.1" width="1024.8" height="24.65" shape-rendering="crispEdges"/><rect fill="#09090b" x="1390.8" y="709.1" width="24.4" height="24.65" shape-rendering="crispEdges"/><rect fill="#121215" x="0" y="733.5" width="329.4" height="24.65" shape-rendering="crispEdges"/><rect fill="#121215" x="329.4" y="733.5" width="12.2" height="24.65" shape-rendering="crispEdges"/><rect fill="#09090b" x="341.6" y="733.5" width="24.4" height="24.65" shape-rendering="crispEdges"/><rect fill="#09090b" x="366" y="733.5" width="1024.8" height="24.65" shape-rendering="crispEdges"/><rect fill="#09090b" x="1390.8" y="733.5" width="24.4" height="24.65" shape-rendering="crispEdges"/><rect fill="#121215" x="0" y="757.9" width="329.4" height="24.65" shape-rendering="crispEdges"/><rect fill="#121215" x="329.4" y="757.9" width="12.2" height="24.65" shape-rendering="crispEdges"/><rect fill="#09090b" x="341.6" y="757.9" width="24.4" height="24.65" shape-rendering="crispEdges"/><rect fill="#09090b" x="366" y="757.9" width="1024.8" height="24.65" shape-rendering="crispEdges"/><rect fill="#09090b" x="1390.8" y="757.9" width="24.4" height="24.65" shape-rendering="crispEdges"/><rect fill="#121215" x="0" y="782.3" width="329.4" height="24.65" shape-rendering="crispEdges"/><rect fill="#121215" x="329.4" y="782.3" width="12.2" height="24.65" shape-rendering="crispEdges"/><rect fill="#09090b" x="341.6" y="782.3" width="1073.6" height="24.65" shape-rendering="crispEdges"/><rect fill="#1c1c21" x="0" y="806.7" width="48.8" height="24.65" shape-rendering="crispEdges"/><rect fill="#1c1c21" x="48.8" y="806.7" width="61" height="24.65" shape-rendering="crispEdges"/><rect fill="#1c1c21" x="109.8" y="806.7" width="61" height="24.65" shape-rendering="crispEdges"/><rect fill="#1c1c21" x="170.8" y="806.7" width="97.6" height="24.65" shape-rendering="crispEdges"/><rect fill="#1c1c21" x="268.4" y="806.7" width="48.8" height="24.65" shape-rendering="crispEdges"/><rect fill="#1c1c21" x="317.2" y="806.7" width="109.8" height="24.65" shape-rendering="crispEdges"/><rect fill="#1c1c21" x="427" y="806.7" width="48.8" height="24.65" shape-rendering="crispEdges"/><rect fill="#1c1c21" x="475.8" y="806.7" width="170.8" height="24.65" shape-rendering="crispEdges"/><rect fill="#1c1c21" x="646.6" y="806.7" width="768.6" height="24.65" shape-rendering="crispEdges"/>
    <g class="terminal-321853827-matrix">
    <text class="terminal-321853827-r2" x="12.2" y="20" textLength="12.2" clip-path="url(#terminal-321853827-line-0)">⭘</text><text class="terminal-321853827-r2" x="610" y="20" textLength="158.6" clip-path="url(#terminal-321853827-line-0)">ScreenshotApp</text><text class="terminal-321853827-r3" x="1305.4" y="20" textLength="97.6" clip-path="url(#terminal-321853827-line-0)">12:47:10</text><text class="terminal-321853827-r1" x="1415.2" y="20" textLength="12.2" clip-path="url(#terminal-321853827-line-0)">
</text><text class="terminal-321853827-r5" x="329.4" y="44.4" textLength="12.2" clip-path="url(#terminal-321853827-line-1)">│</text><text class="terminal-321853827-r1" x="1415.2" y="44.4" textLength="12.2" clip-path="url(#terminal-321853827-line-1)">
</text><text class="terminal-321853827-r6" x="12.2" y="68.8" textLength="183" clip-path="url(#terminal-321853827-line-2)">General&#160;&amp;&#160;Paths</text><text class="terminal-321853827-r5" x="329.4" y="68.8" textLength="12.2" clip-path="url(#terminal-321853827-line-2)">│</text><text class="terminal-321853827-r7" x="366" y="68.8" textLength="366" clip-path="url(#terminal-321853827-line-2)">General&#160;&amp;&#160;Download&#160;Destination</text><text class="terminal-321853827-r1" x="1415.2" y="68.8" textLength="12.2" clip-path="url(#terminal-321853827-line-2)">
</text><text class="terminal-321853827-r8" x="12.2" y="93.2" textLength="207.4" clip-path="url(#terminal-321853827-line-3)">Bandwidth&#160;&amp;&#160;Queue</text><text class="terminal-321853827-r5" x="329.4" y="93.2" textLength="12.2" clip-path="url(#terminal-321853827-line-3)">│</text><text class="terminal-321853827-r8" x="366" y="93.2" textLength="841.8" clip-path="url(#terminal-321853827-line-3)">Configure&#160;where&#160;downloads&#160;are&#160;stored&#160;and&#160;how&#160;filenames&#160;are&#160;formatted.</text><text class="terminal-321853827-r1" x="1415.2" y="93.2" textLength="12.2" clip-path="url(#terminal-321853827-line-3)">
</text><text class="terminal-321853827-r8" x="12.2" y="117.6" textLength="170.8" clip-path="url(#terminal-321853827-line-4)">Cookies&#160;&amp;&#160;Auth</text><text class="terminal-321853827-r5" x="329.4" y="117.6" textLength="12.2" clip-path="url(#terminal-321853827-line-4)">│</text><text class="terminal-321853827-r1" x="1415.2" y="117.6" textLength="12.2" clip-path="url(#terminal-321853827-line-4)">
</text><text class="terminal-321853827-r8" x="12.2" y="142" textLength="109.8" clip-path="url(#terminal-321853827-line-5)">Subtitles</text><text class="terminal-321853827-r5" x="329.4" y="142" textLength="12.2" clip-path="url(#terminal-321853827-line-5)">│</text><text class="terminal-321853827-r8" x="378.2" y="142" textLength="231.8" clip-path="url(#terminal-321853827-line-5)">Download&#160;Directory:</text><text class="terminal-321853827-r2" x="732" y="142" textLength="329.4" clip-path="url(#terminal-321853827-line-5)">C:\Users\bkill\Downloads\yt</text><text class="terminal-321853827-r1" x="1415.2" y="142" textLength="12.2" clip-path="url(#terminal-321853827-line-5)">
</text><text class="terminal-321853827-r8" x="12.2" y="166.4" textLength="195.2" clip-path="url(#terminal-321853827-line-6)">Media&#160;&amp;&#160;Chapters</text><text class="terminal-321853827-r5" x="329.4" y="166.4" textLength="12.2" clip-path="url(#terminal-321853827-line-6)">│</text><text class="terminal-321853827-r1" x="1415.2" y="166.4" textLength="12.2" clip-path="url(#terminal-321853827-line-6)">
</text><text class="terminal-321853827-r8" x="12.2" y="190.8" textLength="97.6" clip-path="url(#terminal-321853827-line-7)">Metadata</text><text class="terminal-321853827-r5" x="329.4" y="190.8" textLength="12.2" clip-path="url(#terminal-321853827-line-7)">│</text><text class="terminal-321853827-r8" x="378.2" y="190.8" textLength="219.6" clip-path="url(#terminal-321853827-line-7)">Filename&#160;Template:</text><text class="terminal-321853827-r2" x="732" y="190.8" textLength="317.2" clip-path="url(#terminal-321853827-line-7)">%(title)s&#160;[%(id)s].%(ext)s</text><text class="terminal-321853827-r1" x="1415.2" y="190.8" textLength="12.2" clip-path="url(#terminal-321853827-line-7)">
</text><text class="terminal-321853827-r8" x="12.2" y="215.2" textLength="134.2" clip-path="url(#terminal-321853827-line-8)">Proxy&#160;&amp;&#160;Geo</text><text class="terminal-321853827-r5" x="329.4" y="215.2" textLength="12.2" clip-path="url(#terminal-321853827-line-8)">│</text><text class="terminal-321853827-r1" x="1415.2" y="215.2" textLength="12.2" clip-path="url(#terminal-321853827-line-8)">
</text><text class="terminal-321853827-r8" x="12.2" y="239.6" textLength="122" clip-path="url(#terminal-321853827-line-9)">Appearance</text><text class="terminal-321853827-r5" x="329.4" y="239.6" textLength="12.2" clip-path="url(#terminal-321853827-line-9)">│</text><text class="terminal-321853827-r8" x="378.2" y="239.6" textLength="231.8" clip-path="url(#terminal-321853827-line-9)">Custom&#160;FFmpeg&#160;Path:</text><text class="terminal-321853827-r1" x="1415.2" y="239.6" textLength="12.2" clip-path="url(#terminal-321853827-line-9)">
</text><text class="terminal-321853827-r5" x="329.4" y="264" textLength="12.2" clip-path="url(#terminal-321853827-line-10)">│</text><text class="terminal-321853827-r1" x="1415.2" y="264" textLength="12.2" clip-path="url(#terminal-321853827-line-10)">
</text><text class="terminal-321853827-r5" x="329.4" y="288.4" textLength="12.2" clip-path="url(#terminal-321853827-line-11)">│</text><text class="terminal-321853827-r8" x="378.2" y="288.4" textLength="170.8" clip-path="url(#terminal-321853827-line-11)">FFmpeg&#160;Status:</text><text class="terminal-321853827-r2" x="719.8" y="288.4" textLength="597.8" clip-path="url(#terminal-321853827-line-11)">✅&#160;Installed&#160;(ffmpeg&#160;version&#160;N-123074-g4e32fb4c2a)</text><text class="terminal-321853827-r1" x="1415.2" y="288.4" textLength="12.2" clip-path="url(#terminal-321853827-line-11)">
</text><text class="terminal-321853827-r5" x="329.4" y="312.8" textLength="12.2" clip-path="url(#terminal-321853827-line-12)">│</text><text class="terminal-321853827-r1" x="1415.2" y="312.8" textLength="12.2" clip-path="url(#terminal-321853827-line-12)">
</text><text class="terminal-321853827-r5" x="329.4" y="337.2" textLength="12.2" clip-path="url(#terminal-321853827-line-13)">│</text><text class="terminal-321853827-r8" x="378.2" y="337.2" textLength="158.6" clip-path="url(#terminal-321853827-line-13)">FFmpeg&#160;Setup:</text><text class="terminal-321853827-r9" x="719.8" y="337.2" textLength="207.4" clip-path="url(#terminal-321853827-line-13)">▔▔▔▔▔▔▔▔▔▔▔▔▔▔▔▔▔</text><text class="terminal-321853827-r1" x="1415.2" y="337.2" textLength="12.2" clip-path="url(#terminal-321853827-line-13)">
</text><text class="terminal-321853827-r5" x="329.4" y="361.6" textLength="12.2" clip-path="url(#terminal-321853827-line-14)">│</text><text class="terminal-321853827-r1" x="1415.2" y="361.6" textLength="12.2" clip-path="url(#terminal-321853827-line-14)">
</text><text class="terminal-321853827-r5" x="329.4" y="386" textLength="12.2" clip-path="url(#terminal-321853827-line-15)">│</text><text class="terminal-321853827-r1" x="1415.2" y="386" textLength="12.2" clip-path="url(#terminal-321853827-line-15)">
</text><text class="terminal-321853827-r5" x="329.4" y="410.4" textLength="12.2" clip-path="url(#terminal-321853827-line-16)">│</text><text class="terminal-321853827-r1" x="1415.2" y="410.4" textLength="12.2" clip-path="url(#terminal-321853827-line-16)">
</text><text class="terminal-321853827-r5" x="329.4" y="434.8" textLength="12.2" clip-path="url(#terminal-321853827-line-17)">│</text><text class="terminal-321853827-r1" x="1415.2" y="434.8" textLength="12.2" clip-path="url(#terminal-321853827-line-17)">
</text><text class="terminal-321853827-r5" x="329.4" y="459.2" textLength="12.2" clip-path="url(#terminal-321853827-line-18)">│</text><text class="terminal-321853827-r1" x="1415.2" y="459.2" textLength="12.2" clip-path="url(#terminal-321853827-line-18)">
</text><text class="terminal-321853827-r5" x="329.4" y="483.6" textLength="12.2" clip-path="url(#terminal-321853827-line-19)">│</text><text class="terminal-321853827-r1" x="1415.2" y="483.6" textLength="12.2" clip-path="url(#terminal-321853827-line-19)">
</text><text class="terminal-321853827-r5" x="329.4" y="508" textLength="12.2" clip-path="url(#terminal-321853827-line-20)">│</text><text class="terminal-321853827-r1" x="1415.2" y="508" textLength="12.2" clip-path="url(#terminal-321853827-line-20)">
</text><text class="terminal-321853827-r5" x="329.4" y="532.4" textLength="12.2" clip-path="url(#terminal-321853827-line-21)">│</text><text class="terminal-321853827-r1" x="1415.2" y="532.4" textLength="12.2" clip-path="url(#terminal-321853827-line-21)">
</text><text class="terminal-321853827-r5" x="329.4" y="556.8" textLength="12.2" clip-path="url(#terminal-321853827-line-22)">│</text><text class="terminal-321853827-r1" x="1415.2" y="556.8" textLength="12.2" clip-path="url(#terminal-321853827-line-22)">
</text><text class="terminal-321853827-r5" x="329.4" y="581.2" textLength="12.2" clip-path="url(#terminal-321853827-line-23)">│</text><text class="terminal-321853827-r1" x="1415.2" y="581.2" textLength="12.2" clip-path="url(#terminal-321853827-line-23)">
</text><text class="terminal-321853827-r5" x="329.4" y="605.6" textLength="12.2" clip-path="url(#terminal-321853827-line-24)">│</text><text class="terminal-321853827-r1" x="1415.2" y="605.6" textLength="12.2" clip-path="url(#terminal-321853827-line-24)">
</text><text class="terminal-321853827-r5" x="329.4" y="630" textLength="12.2" clip-path="url(#terminal-321853827-line-25)">│</text><text class="terminal-321853827-r1" x="1415.2" y="630" textLength="12.2" clip-path="url(#terminal-321853827-line-25)">
</text><text class="terminal-321853827-r5" x="329.4" y="654.4" textLength="12.2" clip-path="url(#terminal-321853827-line-26)">│</text><text class="terminal-321853827-r1" x="1415.2" y="654.4" textLength="12.2" clip-path="url(#terminal-321853827-line-26)">
</text><text class="terminal-321853827-r5" x="329.4" y="678.8" textLength="12.2" clip-path="url(#terminal-321853827-line-27)">│</text><text class="terminal-321853827-r1" x="1415.2" y="678.8" textLength="12.2" clip-path="url(#terminal-321853827-line-27)">
</text><text class="terminal-321853827-r5" x="329.4" y="703.2" textLength="12.2" clip-path="url(#terminal-321853827-line-28)">│</text><text class="terminal-321853827-r1" x="1415.2" y="703.2" textLength="12.2" clip-path="url(#terminal-321853827-line-28)">
</text><text class="terminal-321853827-r5" x="329.4" y="727.6" textLength="12.2" clip-path="url(#terminal-321853827-line-29)">│</text><text class="terminal-321853827-r1" x="1415.2" y="727.6" textLength="12.2" clip-path="url(#terminal-321853827-line-29)">
</text><text class="terminal-321853827-r5" x="329.4" y="752" textLength="12.2" clip-path="url(#terminal-321853827-line-30)">│</text><text class="terminal-321853827-r1" x="1415.2" y="752" textLength="12.2" clip-path="url(#terminal-321853827-line-30)">
</text><text class="terminal-321853827-r5" x="329.4" y="776.4" textLength="12.2" clip-path="url(#terminal-321853827-line-31)">│</text><text class="terminal-321853827-r1" x="1415.2" y="776.4" textLength="12.2" clip-path="url(#terminal-321853827-line-31)">
</text><text class="terminal-321853827-r5" x="329.4" y="800.8" textLength="12.2" clip-path="url(#terminal-321853827-line-32)">│</text><text class="terminal-321853827-r1" x="1415.2" y="800.8" textLength="12.2" clip-path="url(#terminal-321853827-line-32)">
</text><text class="terminal-321853827-r10" x="0" y="825.2" textLength="48.8" clip-path="url(#terminal-321853827-line-33)">&#160;^s&#160;</text><text class="terminal-321853827-r2" x="48.8" y="825.2" textLength="61" clip-path="url(#terminal-321853827-line-33)">Save&#160;</text><text class="terminal-321853827-r10" x="109.8" y="825.2" textLength="61" clip-path="url(#terminal-321853827-line-33)">&#160;esc&#160;</text><text class="terminal-321853827-r2" x="170.8" y="825.2" textLength="97.6" clip-path="url(#terminal-321853827-line-33)">Discard&#160;</text><text class="terminal-321853827-r10" x="268.4" y="825.2" textLength="48.8" clip-path="url(#terminal-321853827-line-33)">&#160;^r&#160;</text><text class="terminal-321853827-r2" x="317.2" y="825.2" textLength="109.8" clip-path="url(#terminal-321853827-line-33)">Defaults&#160;</text><text class="terminal-321853827-r10" x="427" y="825.2" textLength="48.8" clip-path="url(#terminal-321853827-line-33)">&#160;^u&#160;</text><text class="terminal-321853827-r2" x="475.8" y="825.2" textLength="170.8" clip-path="url(#terminal-321853827-line-33)">Update&#160;yt-dlp&#160;</text>
    </g>
    </g>
</svg>
